<?xml version="1.0" standalone="no"?><svg xmlns="http://www.w3.org/2000/svg" viewBox="0 0 1440 320"><path fill="#5000ca" fill-opacity="0.2" d="M0,288L12,288C24,288,48,288,72,261.3C96,235,120,181,144,138.7C168,96,192,64,216,85.3C240,107,264,181,288,213.3C312,245,336,235,360,240C384,245,408,267,432,272C456,277,480,267,504,240C528,213,552,171,576,128C600,85,624,43,648,69.3C672,96,696,192,720,213.3C744,235,768,181,792,160C816,139,840,149,864,128C888,107,912,53,936,48C960,43,984,85,1008,106.7C1032,128,1056,128,1080,122.7C1104,117,1128,107,1152,117.3C1176,128,1200,160,1224,149.3C1248,139,1272,85,1296,69.3C1320,53,1344,75,1368,74.7C1392,75,1416,53,1428,42.7L1440,32L1440,320L1428,320C1416,320,1392,320,1368,320C1344,320,1320,320,1296,320C1272,320,1248,320,1224,320C1200,320,1176,320,1152,320C1128,320,1104,320,1080,320C1056,320,1032,320,1008,320C984,320,960,320,936,320C912,320,888,320,864,320C840,320,816,320,792,320C768,320,744,320,720,320C696,320,672,320,648,320C624,320,600,320,576,320C552,320,528,320,504,320C480,320,456,320,432,320C408,320,384,320,360,320C336,320,312,320,288,320C264,320,240,320,216,320C192,320,168,320,144,320C120,320,96,320,72,320C48,320,24,320,12,320L0,320Z"></path></svg>